<?xml version="1.0" encoding="UTF-8" standalone="no"?>
<!-- Created with Inkscape (http://www.inkscape.org/) -->

<svg
   xmlns:dc="http://purl.org/dc/elements/1.1/"
   xmlns:cc="http://creativecommons.org/ns#"
   xmlns:rdf="http://www.w3.org/1999/02/22-rdf-syntax-ns#"
   xmlns:svg="http://www.w3.org/2000/svg"
   xmlns="http://www.w3.org/2000/svg"
   xmlns:sodipodi="http://sodipodi.sourceforge.net/DTD/sodipodi-0.dtd"
   xmlns:inkscape="http://www.inkscape.org/namespaces/inkscape"
   width="242mm"
   height="70mm"
   viewBox="0 0 242 70"
   version="1.1"
   id="svg3789"
   inkscape:export-filename="F:\My\site\Земстройпроект\логотип\Новая папка\Растровый.png"
   inkscape:export-xdpi="96"
   inkscape:export-ydpi="96"
   inkscape:version="0.92.1 r15371"
   sodipodi:docname="рисунок-1.svg">
  <defs
     id="defs3783" />
  <sodipodi:namedview
     id="base"
     pagecolor="#ffffff"
     bordercolor="#666666"
     borderopacity="1.0"
     inkscape:pageopacity="0.0"
     inkscape:pageshadow="2"
     inkscape:zoom="0.90509668"
     inkscape:cx="285.29428"
     inkscape:cy="-40.808853"
     inkscape:document-units="mm"
     inkscape:current-layer="layer1"
     showgrid="false"
     inkscape:window-width="1920"
     inkscape:window-height="1018"
     inkscape:window-x="-8"
     inkscape:window-y="-8"
     inkscape:window-maximized="1" />
  <metadata
     id="metadata3786">
    <rdf:RDF>
      <cc:Work
         rdf:about="">
        <dc:format>image/svg+xml</dc:format>
        <dc:type
           rdf:resource="http://purl.org/dc/dcmitype/StillImage" />
        <dc:title></dc:title>
      </cc:Work>
    </rdf:RDF>
  </metadata>
  <g
     inkscape:label="Layer 1"
     inkscape:groupmode="layer"
     id="layer1"
     transform="translate(0,-227)">
    <path
       d="m 84.698733,259.58511 v -2.76915 h 5.853375 c 1.0668,0 1.78898,0.0955 2.1672,0.2865 0.43205,0.2165 0.72906,0.53485 0.89112,0.955 0.16205,0.42 0.243,1.05665 0.243,1.90965 v 1.547 c 0,0.9803 -0.3003,1.66145 -0.90117,2.0434 0.600865,0.1785 0.90117,0.764 0.90117,1.7571 v 2.4827 c 0,1.15865 -0.43205,2.01165 -1.29633,2.55905 -0.600735,0.382 -1.286005,0.57295 -2.055545,0.57295 h -5.80282 v -2.7691 h 5.831545 c 1.230315,0 1.844675,-0.344 1.844675,-1.03135 v -1.37505 c 0,-0.56025 -0.422,-0.8403 -1.267615,-0.8403 h -4.8895 v -2.76915 h 4.636425 c 1.01428,0 1.52069,-0.312 1.52069,-0.9358 v -0.8021 c 0,-0.382 -0.17885,-0.63025 -0.536705,-0.7448 -0.1553,-0.051 -0.4236,-0.0765 -0.80182,-0.0765 z m 10.349835,11.3441 v -14.11325 h 9.225622 v 2.76915 h -7.747262 v 0.69 0.97145 2.76935 2.1609 1.9833 h 7.747262 v 2.7691 z m 2.791885,-9.68265 h 5.005647 v 2.76935 h -5.005647 z m 19.720187,9.68265 v -9.396 l -4.8002,9.0141 c -0.13495,0.2545 -0.3073,0.382 -0.51647,0.382 -0.2093,0 -0.38485,-0.1335 -0.52665,-0.401 l -4.7293,-8.9568 v 9.3579 h -1.47862 v -12.71915 c 0,-0.4075 0.0576,-0.7607 0.1724,-1.0598 0.1164,-0.299 0.2785,-0.449 0.48935,-0.449 0.2093,0 0.41025,0.175 0.59915,0.5252 l 5.4737,10.4083 5.55122,-10.3956 c 0.18905,-0.3595 0.38485,-0.5379 0.58566,-0.5379 0.2093,0 0.3712,0.1495 0.48605,0.449 0.11485,0.299 0.1721,0.65245 0.1721,1.0598 v 12.71915 z m 6.30899,0 c -0.81015,0 -1.49212,-0.1785 -2.04562,-0.5347 -0.83728,-0.53485 -1.25572,-1.40055 -1.25572,-2.5973 v -7.8302 c 0,-1.1459 0.42175,-1.9989 1.26577,-2.55905 0.59412,-0.3945 1.27265,-0.592 2.03557,-0.592 h 5.92429 v 2.76915 h -5.92429 c -1.19499,0 -1.79242,0.50295 -1.79242,1.50865 v 5.84395 c 0,0.81495 0.59743,1.2224 1.79242,1.2224 h 5.92429 v 2.7691 z m 12.58768,-11.3441 v 11.3441 h -1.47849 v -11.3441 h -3.87866 v -2.76915 h 9.22575 v 2.76915 z m 13.62075,3.80045 c 0,1.1586 -0.422,2.01165 -1.26418,2.55905 -0.59411,0.382 -1.27093,0.5731 -2.032,0.5731 h -3.13743 v -2.76925 h 3.12711 c 0.38485,0 0.73766,-0.0635 1.06177,-0.191 0.51132,-0.2035 0.76624,-0.5346 0.76624,-0.9931 v -1.81425 c 0,-0.77655 -0.60934,-1.16495 -1.82801,-1.16495 h -4.44063 v 2.75535 1.408 2.76925 1.7244 2.6871 h -1.47848 v -14.11325 h 5.92427 c 2.20082,0 3.30134,1.0504 3.30134,3.15105 z m 10.12693,4.41165 c 0,1.1839 -0.4187,2.0434 -1.2557,2.57825 -0.58076,0.369 -1.26259,0.55375 -2.04577,0.55375 h -0.65986 v -2.7691 h 0.72403 c 1.17316,0 1.75869,-0.3565 1.75869,-1.0696 v -6.39775 c 0,-0.73845 -0.58553,-1.10765 -1.75869,-1.10765 h -2.76132 c -1.14591,0 -1.71821,0.369 -1.71821,1.10765 v 6.39775 c 0,0.71295 0.5723,1.0696 1.71821,1.0696 h 0.72376 v 2.7691 h -0.64942 c -0.72244,0 -1.39753,-0.2035 -2.02539,-0.61105 -0.85064,-0.54755 -1.27594,-1.38785 -1.27594,-2.52095 v -7.8302 c 0,-1.2094 0.41525,-2.07525 1.24552,-2.5973 0.5875,-0.369 1.27263,-0.55375 2.05581,-0.55375 h 2.62281 c 2.20108,0 3.30147,1.0504 3.30147,3.15105 z m 10.50157,-9.6062 c 0,-0.395 -0.0573,-0.7353 -0.1721,-1.0217 -0.1147,-0.2865 -0.27345,-0.4295 -0.476,-0.4295 -0.1823,0 -0.36115,0.1275 -0.53671,0.382 l -6.57238,9.58705 v -9.89265 h -1.46844 v 12.71905 c 0,0.4075 0.0539,0.7448 0.16205,1.0123 0.1216,0.3055 0.2868,0.458 0.49625,0.458 0.1757,0 0.3511,-0.1275 0.52666,-0.382 l 6.57225,-9.60625 v 9.9118 h 1.46843 z m -6.87612,-1.85235 v -2.7694 h 4.76978 v 2.7694 z m 17.40826,0.4775 v 14.11325 h -1.47862 v -11.3441 h -6.2787 v 11.3441 h -1.47836 v -14.11325 z m 10.16741,6.5696 c 0,1.1586 -0.422,2.01165 -1.26418,2.55905 -0.59412,0.382 -1.27093,0.5731 -2.03213,0.5731 h -3.1373 v -2.76925 h 3.12711 c 0.38485,0 0.73766,-0.0635 1.06164,-0.191 0.51144,-0.2035 0.76637,-0.5346 0.76637,-0.9931 v -1.81425 c 0,-0.77655 -0.60934,-1.16495 -1.82801,-1.16495 h -4.44063 v 2.4942 1.66915 2.76925 1.4634 2.9481 h -1.4785 v -14.11325 h 5.92416 c 2.20093,0 3.30147,1.0504 3.30147,3.15105 z m 10.12679,4.41165 c 0,1.1839 -0.41855,2.0434 -1.25571,2.57825 -0.58063,0.3695 -1.26233,0.55375 -2.04563,0.55375 h -0.65987 v -2.7691 h 0.72404 c 1.17303,0 1.75868,-0.3565 1.75868,-1.0696 v -6.39775 c 0,-0.73845 -0.58565,-1.10765 -1.75868,-1.10765 h -2.76133 c -1.14591,0 -1.7182,0.369 -1.7182,1.10765 v 6.39775 c 0,0.71295 0.57229,1.0696 1.7182,1.0696 h 0.72377 v 2.7691 h -0.64942 c -0.72245,0 -1.3974,-0.2035 -2.02539,-0.61105 -0.85063,-0.54755 -1.27608,-1.38785 -1.27608,-2.52095 v -7.8302 c 0,-1.2094 0.4154,-2.07525 1.24566,-2.5973 0.58737,-0.369 1.27264,-0.55375 2.05581,-0.55375 h 2.62281 c 2.20107,0 3.30134,1.0504 3.30134,3.15105 z m 1.20518,3.132 v -14.11325 h 9.22576 v 2.76915 h -7.74714 v 0.259 1.4026 2.76935 1.72985 2.41435 h 7.74714 v 2.7691 z m 2.79215,-9.68265 h 5.00552 v 2.7694 h -5.00552 z m 15.06167,9.68265 -5.96477,-6.3214 v 6.3214 h -1.47862 v -14.11325 h 1.47864 v 4.96545 l 5.28624,-4.96545 h 3.27091 l -6.8998,6.525 7.22219,7.58825 z m 8.04069,-11.3441 v 11.3441 h -1.4785 v -11.3441 h -3.87865 v -2.76915 h 9.22549 v 2.76915 z"
       style="fill:#1b1918;fill-rule:evenodd;stroke-width:1.32291663"
       id="path70"
       inkscape:connector-curvature="0" />
    <g
       transform="matrix(1.3229166,0,0,1.3229166,-36.686947,192.79236)"
       id="Layer1000">
      <path
         d="m 38.0122,34.8567 c -9.7617,9.7617 -9.7617,25.5884 0,35.3501 9.7616,9.7617 25.5884,9.7617 35.3501,0 6.3499,-6.3499 8.5692,-15.266 6.658,-23.4098 -0.4157,-1.7716 -1.027,-3.5067 -1.8336,-5.1709 -1.1751,-2.3006 -2.8252,-4.5853 -4.9093,-6.6694 -2.1802,-2.1802 -4.5801,-3.8856 -6.9878,-5.0689 -1.4696,-0.688 -2.9923,-1.225 -4.5449,-1.6112 -8.2302,-2.0471 -17.2987,0.1462 -23.7325,6.5801 z M 48.352,59.882 C 44.8646,56.3946 40.4503,54.9891 37.7757,56.3151 36.5695,53.9167 35.794,51.5076 35.4816,49.2332 l 0.1893,-0.1962 c 1.3074,-1.3074 3.0171,-2.0636 4.9457,-2.3047 1.429,4.3073 4.1979,8.7953 8.1438,12.7413 3.9459,3.9459 8.434,6.7148 12.7413,8.1437 -0.2412,1.9286 -0.9973,3.6383 -2.3048,4.9457 l -0.1962,0.1893 C 56.7263,72.4399 54.3172,71.6644 51.9188,70.4582 53.2448,67.7836 51.8393,63.3694 48.352,59.882 Z m -4.5999,4.5999 c -1.9512,-1.9511 -3.5857,-4.0485 -4.8801,-6.187 0.1377,-0.3421 0.334,-0.6468 0.5915,-0.9043 1.7665,-1.7665 5.746,-0.6511 8.8885,2.4914 3.1424,3.1424 4.2578,7.1219 2.4913,8.8884 -0.2575,0.2575 -0.5621,0.4538 -0.9043,0.5915 -2.1385,-1.2944 -4.2358,-2.9289 -6.1869,-4.88 z M 55.3013,52.9327 c -3.6885,-3.6885 -8.0607,-5.9642 -12.0729,-6.622 -1.15,-3.3523 -1.4159,-6.5976 -0.707,-9.329 2.2356,-0.5802 4.8157,-0.5073 7.5171,0.169 0.1789,4.427 2.6405,9.6732 7.0061,14.0388 4.3654,4.3654 9.6116,6.827 14.0386,7.006 0.6763,2.7013 0.7492,5.2814 0.169,7.517 -2.7312,0.7089 -5.9765,0.443 -9.329,-0.707 -0.6578,-4.0122 -2.9334,-8.3844 -6.6219,-12.0728 z M 61.514,64.861 C 57.7886,63.5067 53.9517,61.0706 50.5575,57.6765 47.1633,54.2823 44.7272,50.4454 43.373,46.72 c 3.903,0.412 8.2776,2.562 11.9283,6.2127 3.3613,3.3612 5.7828,7.7482 6.2176,11.9301 z m 1.7021,-19.8431 c -3.4327,-3.4327 -7.2555,-6.0041 -11.0141,-7.6075 -0.3627,-2.7638 0.2165,-5.206 1.8577,-6.8472 0.2267,-0.2267 0.4686,-0.4331 0.7246,-0.6196 2.3314,0.3217 4.8038,1.1298 7.261,2.3893 l 0.1157,-0.1017 c -2.2544,-1.2517 -4.5331,-2.1585 -6.7349,-2.6977 4.288,-2.3893 11.6785,-0.0821 17.5175,5.7569 5.8389,5.8389 8.1462,13.2294 5.7568,17.5174 -0.5392,-2.2018 -1.446,-4.4805 -2.6977,-6.7348 l -0.1017,0.1157 c 1.2595,2.4571 2.0676,4.9296 2.3893,7.2609 -0.1865,0.256 -0.3929,0.4979 -0.6196,0.7246 -1.6412,1.6412 -4.0834,2.2204 -6.8472,1.8577 -1.6034,-3.7586 -4.1748,-7.5813 -7.6074,-11.014 z m -22.7942,1.1013 c -1.8916,0.0645 -3.6305,0.5465 -5.0858,1.4716 -0.124,-3.2512 0.781,-6.1308 2.8196,-8.1695 0.454,-0.4539 0.9497,-0.8517 1.4819,-1.1943 -0.3379,2.4074 -0.0616,5.1044 0.7843,7.8922 z M 62.1147,67.812 c 2.7878,0.8459 5.4848,1.1222 7.8923,0.7843 -0.3427,0.5322 -0.7405,1.0279 -1.1944,1.4819 -2.0388,2.0387 -4.9184,2.9437 -8.1696,2.8197 0.9252,-1.4553 1.4072,-3.1942 1.4717,-5.0859 z m 9.531,-9.6061 c 2.4942,-0.0096 4.6958,-0.7735 6.2853,-2.363 0.1814,-0.1814 0.3521,-0.3708 0.5121,-0.5677 0.0861,3.1808 -0.8225,5.9949 -2.8251,7.9976 -0.8282,0.8281 -1.7951,1.4692 -2.8693,1.9302 0.0788,-2.1809 -0.2989,-4.5561 -1.103,-6.9971 z M 50.0281,36.5883 c -2.441,-0.8042 -4.8163,-1.1819 -6.9972,-1.1031 0.461,-1.0742 1.1021,-2.0411 1.9303,-2.8693 2.0026,-2.0026 4.8167,-2.9112 7.9975,-2.8251 -0.1969,0.16 -0.3863,0.3307 -0.5677,0.5121 -1.5895,1.5895 -2.3535,3.7911 -2.3629,6.2854 z m 8.7587,12.8589 c -3.6435,-3.6435 -5.9118,-7.891 -6.522,-11.612 3.7238,1.3547 7.5587,3.7901 10.9513,7.1827 3.3925,3.3926 5.8279,7.2274 7.1826,10.9512 -3.7209,-0.6101 -7.9685,-2.8785 -11.6119,-6.5219 z"
         style="fill:#009c68;fill-rule:evenodd"
         id="path72"
         inkscape:connector-curvature="0" />
      <path
         d="m 64.7953,43.4387 c 3.8274,3.8274 8.7542,5.106 11.0043,2.8559 l 0.1014,-0.1059 c 0.0509,-0.0578 0.0647,-0.0736 0.1017,-0.1157 1.9634,-2.3393 0.6471,-7.0764 -3.0591,-10.7826 -3.7062,-3.7062 -8.4433,-5.0225 -10.7826,-3.0592 -0.041,0.0361 -0.0518,0.0455 -0.1157,0.1017 l -0.1059,0.1015 c -2.2501,2.2501 -0.9715,7.1769 2.8559,11.0043 z m 10.1766,1.0774 c -1.9412,1.4258 -5.6817,0.3246 -8.6302,-2.6238 -2.9485,-2.9485 -4.0497,-6.689 -2.6238,-8.6302 0,0 0.0232,-0.0429 0.0558,-0.0734 0.0679,-0.0862 0.1409,-0.1687 0.2193,-0.247 1.823,-1.8231 5.8303,-0.7715 8.9506,2.3487 3.1202,3.1202 4.1717,7.1275 2.3487,8.9506 -0.0784,0.0783 -0.1609,0.1514 -0.247,0.2192 -0.0314,0.0263 -0.0478,0.0388 -0.0734,0.0559 z"
         style="fill:#009c68;fill-rule:evenodd"
         id="path74"
         inkscape:connector-curvature="0" />
    </g>
  </g>
</svg>
