<?xml version="1.0" encoding="UTF-8" standalone="no"?>
<svg
   xmlns:dc="http://purl.org/dc/elements/1.1/"
   xmlns:cc="http://creativecommons.org/ns#"
   xmlns:rdf="http://www.w3.org/1999/02/22-rdf-syntax-ns#"
   xmlns:svg="http://www.w3.org/2000/svg"
   xmlns="http://www.w3.org/2000/svg"
   xmlns:sodipodi="http://sodipodi.sourceforge.net/DTD/sodipodi-0.dtd"
   xmlns:inkscape="http://www.inkscape.org/namespaces/inkscape"
   id="svg5385"
   version="1.1"
   viewBox="0 0 23 30"
   height="30mm"
   width="23mm"
   sodipodi:docname="pic2.svg"
   inkscape:version="0.92.1 r15371">
  <sodipodi:namedview
     pagecolor="#ffffff"
     bordercolor="#666666"
     borderopacity="1"
     objecttolerance="10"
     gridtolerance="10"
     guidetolerance="10"
     inkscape:pageopacity="0"
     inkscape:pageshadow="2"
     inkscape:window-width="1920"
     inkscape:window-height="1018"
     id="namedview54"
     showgrid="false"
     inkscape:zoom="11.774114"
     inkscape:cx="24.771971"
     inkscape:cy="10.515196"
     inkscape:window-x="-8"
     inkscape:window-y="-8"
     inkscape:window-maximized="1"
     inkscape:current-layer="svg5385" />
  <defs
     id="defs5379" />
  <metadata
     id="metadata5382">
    <rdf:RDF>
      <cc:Work
         rdf:about="">
        <dc:format>image/svg+xml</dc:format>
        <dc:type
           rdf:resource="http://purl.org/dc/dcmitype/StillImage" />
        <dc:title />
      </cc:Work>
    </rdf:RDF>
  </metadata>
  <g
     id="g4515">
    <g
       id="g1382"
       transform="matrix(0.26458334,0,0,0.26458334,-76.162866,-272.08358)">
      <g
         id="g1372">
        <path
           d="m 366.4,1141.7 h -78.5 v -112 h 78.5 c 4.4,0 7.9,3.6 7.9,7.9 v 96.1 c 0,4.5 -3.5,8 -7.9,8 z m -76,-2.5 h 76 c 3,0 5.4,-2.4 5.4,-5.4 v -96.1 c 0,-3 -2.4,-5.4 -5.4,-5.4 h -76 z"
           id="path1370"
           inkscape:connector-curvature="0"
           style="fill:#515151" />
      </g>
      <g
         id="g1376">
        <path
           d="m 356,1073.4 h -47.8 v -16.9 H 356 Z m -45.3,-2.5 h 42.8 V 1059 h -42.8 z"
           id="path1374"
           inkscape:connector-curvature="0"
           style="fill:#515151" />
      </g>
      <g
         id="g1380">
        <rect
           x="314.10001"
           y="1063.7"
           width="34"
           height="2.5"
           id="rect1378"
           style="fill:#515151" />
      </g>
    </g>
    <path
       inkscape:connector-curvature="0"
       id="path4488"
       d="M 0.67711795,15.166991 V 1.0525757 L 10.962545,1.0761704 c 10.277166,0.023576 10.28563,0.023746 10.539187,0.2116326 0.139568,0.1034208 0.34477,0.3217593 0.456005,0.4851966 l 0.202245,0.2971588 V 15.159219 c 0,12.567322 -0.0066,13.101431 -0.16642,13.399368 -0.09153,0.170669 -0.276509,0.392509 -0.411062,0.492974 -0.242174,0.180822 -0.348881,0.182904 -10.575012,0.206256 l -10.33037005,0.0236 z M 18.025204,9.6839221 V 7.4367605 H 11.688209 5.3512139 v 2.2471616 2.2471609 h 6.3369951 6.336995 z"
       style="fill:#ebf5fc;fill-opacity:1;stroke:#ebf5fc;stroke-width:0.08988646;stroke-opacity:1" />
  </g>
</svg>
