<?xml version="1.0" encoding="UTF-8" standalone="no"?>
<svg
   xmlns:dc="http://purl.org/dc/elements/1.1/"
   xmlns:cc="http://creativecommons.org/ns#"
   xmlns:rdf="http://www.w3.org/1999/02/22-rdf-syntax-ns#"
   xmlns:svg="http://www.w3.org/2000/svg"
   xmlns="http://www.w3.org/2000/svg"
   xmlns:sodipodi="http://sodipodi.sourceforge.net/DTD/sodipodi-0.dtd"
   xmlns:inkscape="http://www.inkscape.org/namespaces/inkscape"
   id="svg5385"
   version="1.1"
   viewBox="0 0 23 39"
   height="39mm"
   width="23mm"
   sodipodi:docname="pic3.svg"
   inkscape:version="0.92.1 r15371">
  <sodipodi:namedview
     pagecolor="#ffffff"
     bordercolor="#666666"
     borderopacity="1"
     objecttolerance="10"
     gridtolerance="10"
     guidetolerance="10"
     inkscape:pageopacity="0"
     inkscape:pageshadow="2"
     inkscape:window-width="1920"
     inkscape:window-height="1018"
     id="namedview82"
     showgrid="false"
     inkscape:zoom="12.808547"
     inkscape:cx="11.263976"
     inkscape:cy="9.5074471"
     inkscape:window-x="-8"
     inkscape:window-y="-8"
     inkscape:window-maximized="1"
     inkscape:current-layer="svg5385" />
  <defs
     id="defs5379" />
  <metadata
     id="metadata5382">
    <rdf:RDF>
      <cc:Work
         rdf:about="">
        <dc:format>image/svg+xml</dc:format>
        <dc:type
           rdf:resource="http://purl.org/dc/dcmitype/StillImage" />
        <dc:title />
      </cc:Work>
    </rdf:RDF>
  </metadata>
  <g
     transform="matrix(0.26458333,0,0,0.26458333,-26.063259,-36.76533)"
     id="g78">
    <g
       id="g8">
      <path
         inkscape:connector-curvature="0"
         style="fill:#ffffff"
         d="m 147.6,141.9 h -15.1 c -3.2,0 -5.8,2.6 -5.8,5.8 V 162 c 0,2.9 2.2,5.4 5.1,5.8 v -18.6 c 0,-1.1 0.9,-2 2,-2 h 12.8 c 1.1,0 2,0.9 2,2 v 18.5 c 2.7,-0.5 4.8,-2.9 4.8,-5.7 v -14.3 c 0,-3.2 -2.6,-5.8 -5.8,-5.8 z"
         id="path4" />
      <path
         inkscape:connector-curvature="0"
         style="fill:#515151"
         d="m 147.3,169.2 v -20 c 0,-0.4 -0.4,-0.8 -0.8,-0.8 h -12.8 c -0.4,0 -0.8,0.4 -0.8,0.8 v 20 l -1.4,-0.2 c -3.5,-0.5 -6.1,-3.5 -6.1,-7 v -14.3 c 0,-3.9 3.2,-7.1 7.1,-7.1 h 15.1 c 3.9,0 7.1,3.2 7.1,7.1 V 162 c 0,3.4 -2.4,6.3 -5.8,6.9 z m -14.8,-26 c -2.5,0 -4.6,2 -4.6,4.6 V 162 c 0,1.8 1,3.3 2.6,4.1 v -16.9 c 0,-1.8 1.5,-3.3 3.3,-3.3 h 12.8 c 1.8,0 3.3,1.5 3.3,3.3 v 16.7 c 1.4,-0.8 2.3,-2.3 2.3,-3.9 v -14.3 c 0,-2.5 -2,-4.6 -4.6,-4.6 h -15.1 z"
         id="path6" />
    </g>
    <g
       id="g14">
      <polygon
         style="fill:#ffc416"
         points="132.3,205.9 104.8,285.2 100.4,285.2 127.9,205.9 "
         id="polygon10" />
      <path
         inkscape:connector-curvature="0"
         style="fill:#515151"
         d="M 105.7,286.4 H 98.6 L 127,204.6 h 7.1 z m -3.6,-2.5 h 1.8 l 26.7,-76.8 h -1.8 z"
         id="path12" />
    </g>
    <g
       id="g20">
      <polygon
         style="fill:#ffc416"
         points="148.8,205.9 176.3,285.2 180.7,285.2 153.2,205.9 "
         id="polygon16" />
      <path
         inkscape:connector-curvature="0"
         style="fill:#515151"
         d="m 182.5,286.4 h -7.1 L 147,204.6 h 7.1 z m -5.3,-2.5 h 1.8 l -26.7,-76.8 h -1.8 z"
         id="path18" />
    </g>
    <g
       id="g26">
      <rect
         style="fill:#ffc416"
         x="138.10001"
         y="206.10001"
         width="5"
         height="64.699997"
         id="rect22" />
      <path
         inkscape:connector-curvature="0"
         style="fill:#515151"
         d="m 144.3,272 h -7.5 v -67.2 h 7.5 z m -5,-2.5 h 2.5 v -62.2 h -2.5 z"
         id="path24" />
    </g>
    <g
       id="g34">
      <path
         inkscape:connector-curvature="0"
         style="fill:#cad5d7"
         d="m 156.2,206.2 h -32.4 c -2.4,0 -4.3,-1.9 -4.3,-4.3 v -43.1 c 0,-2.4 1.9,-4.3 4.3,-4.3 h 32.4 c 2.4,0 4.3,1.9 4.3,4.3 v 43.1 c 0,2.3 -1.9,4.3 -4.3,4.3 z"
         id="path28" />
      <g
         id="g32">
        <path
           inkscape:connector-curvature="0"
           style="fill:#515151"
           d="m 156.2,207.4 h -32.4 c -3.1,0 -5.6,-2.5 -5.6,-5.6 v -43.1 c 0,-3.1 2.5,-5.6 5.6,-5.6 h 32.4 c 3.1,0 5.6,2.5 5.6,5.6 v 43.1 c 0,3.1 -2.5,5.6 -5.6,5.6 z m -32.4,-51.7 c -1.7,0 -3.1,1.4 -3.1,3.1 v 43.1 c 0,1.7 1.4,3.1 3.1,3.1 h 32.4 c 1.7,0 3.1,-1.4 3.1,-3.1 v -43.1 c 0,-1.7 -1.4,-3.1 -3.1,-3.1 z"
           id="path30" />
      </g>
    </g>
    <g
       id="g40">
      <path
         inkscape:connector-curvature="0"
         style="fill:#ffc416"
         d="m 126.5,154.4 h -3 c -2.2,0 -4,1.8 -4,4 v 43.8 c 0,2.2 1.8,4 4,4 h 3 z"
         id="path36" />
      <path
         inkscape:connector-curvature="0"
         style="fill:#515151"
         d="m 127.8,207.4 h -4.3 c -2.9,0 -5.2,-2.4 -5.2,-5.2 v -43.8 c 0,-2.9 2.4,-5.2 5.2,-5.2 h 4.3 z m -4.3,-51.7 c -1.5,0 -2.7,1.2 -2.7,2.7 v 43.8 c 0,1.5 1.2,2.7 2.7,2.7 h 1.8 v -49.2 z"
         id="path38" />
    </g>
    <g
       id="g46">
      <path
         inkscape:connector-curvature="0"
         style="fill:#ffc416"
         d="m 153.5,154.4 h 3 c 2.2,0 4,1.8 4,4 v 43.8 c 0,2.2 -1.8,4 -4,4 h -3 z"
         id="path42" />
      <path
         inkscape:connector-curvature="0"
         style="fill:#515151"
         d="m 156.5,207.4 h -4.3 v -54.2 h 4.3 c 2.9,0 5.2,2.4 5.2,5.2 v 43.8 c 0.1,2.9 -2.3,5.2 -5.2,5.2 z m -1.7,-2.5 h 1.8 c 1.5,0 2.7,-1.2 2.7,-2.7 v -43.8 c 0,-1.5 -1.2,-2.7 -2.7,-2.7 h -1.8 z"
         id="path44" />
    </g>
    <g
       id="g52">
      <path
         inkscape:connector-curvature="0"
         style="fill:#ffffff"
         d="m 119.5,191.9 v 10.3 c 0,2.2 1.8,4 4,4 h 33 c 2.2,0 4,-1.8 4,-4 v -10.3 z"
         id="path48" />
      <path
         inkscape:connector-curvature="0"
         style="fill:#515151"
         d="m 156.5,207.4 h -33 c -2.9,0 -5.2,-2.4 -5.2,-5.2 v -11.6 h 43.5 v 11.6 c 0,2.9 -2.4,5.2 -5.3,5.2 z m -35.7,-14.3 v 9.1 c 0,1.5 1.2,2.7 2.7,2.7 h 33 c 1.5,0 2.7,-1.2 2.7,-2.7 v -9.1 z"
         id="path50" />
    </g>
    <g
       id="g58">
      <circle
         style="fill:#e2e2e2"
         cx="140.7"
         cy="175.5"
         r="9.5"
         id="circle54" />
      <path
         inkscape:connector-curvature="0"
         style="fill:#515151"
         d="m 140.7,186.3 c -5.9,0 -10.7,-4.8 -10.7,-10.7 0,-5.9 4.8,-10.7 10.7,-10.7 5.9,0 10.7,4.8 10.7,10.7 0,5.8 -4.8,10.7 -10.7,10.7 z m 0,-19 c -4.5,0 -8.2,3.7 -8.2,8.2 0,4.5 3.7,8.2 8.2,8.2 4.5,0 8.2,-3.7 8.2,-8.2 0,-4.5 -3.7,-8.2 -8.2,-8.2 z"
         id="path56" />
    </g>
    <g
       id="g64">
      <circle
         style="fill:#515151"
         cx="140.7"
         cy="175.5"
         r="6.5"
         id="circle60" />
      <path
         inkscape:connector-curvature="0"
         style="fill:#515151"
         d="m 140.7,183.2 c -4.3,0 -7.7,-3.5 -7.7,-7.7 0,-4.3 3.5,-7.7 7.7,-7.7 4.3,0 7.7,3.5 7.7,7.7 0,4.3 -3.4,7.7 -7.7,7.7 z m 0,-12.9 c -2.9,0 -5.2,2.3 -5.2,5.2 0,2.9 2.3,5.2 5.2,5.2 2.9,0 5.2,-2.3 5.2,-5.2 0,-2.9 -2.3,-5.2 -5.2,-5.2 z"
         id="path62" />
    </g>
    <g
       id="g70">
      <rect
         style="fill:#afafaf"
         x="160.60001"
         y="182.7"
         width="2.5"
         height="4.6999998"
         id="rect66" />
      <rect
         style="fill:#515151"
         x="159.3"
         y="181.5"
         width="5"
         height="7.1999998"
         id="rect68" />
    </g>
    <g
       id="g76">
      <polygon
         style="fill:#515151"
         points="163,187.4 163,182.7 167.4,181.3 167.4,188.8 "
         id="polygon72" />
      <path
         inkscape:connector-curvature="0"
         style="fill:#515151"
         d="m 168.7,190.5 -6.9,-2.2 v -6.5 l 6.9,-2.2 z m -4.4,-4 1.9,0.6 V 183 l -1.9,0.6 z"
         id="path74" />
    </g>
  </g>
</svg>
