<?xml version="1.0" encoding="UTF-8" standalone="no"?>
<svg
   xmlns:dc="http://purl.org/dc/elements/1.1/"
   xmlns:cc="http://creativecommons.org/ns#"
   xmlns:rdf="http://www.w3.org/1999/02/22-rdf-syntax-ns#"
   xmlns:svg="http://www.w3.org/2000/svg"
   xmlns="http://www.w3.org/2000/svg"
   xmlns:sodipodi="http://sodipodi.sourceforge.net/DTD/sodipodi-0.dtd"
   xmlns:inkscape="http://www.inkscape.org/namespaces/inkscape"
   id="svg5385"
   version="1.1"
   viewBox="0 0 23 30"
   height="30mm"
   width="23mm"
   sodipodi:docname="pic4.svg"
   inkscape:version="0.92.1 r15371">
  <sodipodi:namedview
     pagecolor="#ffffff"
     bordercolor="#666666"
     borderopacity="1"
     objecttolerance="10"
     gridtolerance="10"
     guidetolerance="10"
     inkscape:pageopacity="0"
     inkscape:pageshadow="2"
     inkscape:window-width="1920"
     inkscape:window-height="1018"
     id="namedview79"
     showgrid="false"
     inkscape:zoom="23.548227"
     inkscape:cx="7.6048991"
     inkscape:cy="4.9301148"
     inkscape:window-x="-8"
     inkscape:window-y="-8"
     inkscape:window-maximized="1"
     inkscape:current-layer="svg5385" />
  <defs
     id="defs5379" />
  <metadata
     id="metadata5382">
    <rdf:RDF>
      <cc:Work
         rdf:about="">
        <dc:format>image/svg+xml</dc:format>
        <dc:type
           rdf:resource="http://purl.org/dc/dcmitype/StillImage" />
        <dc:title />
      </cc:Work>
    </rdf:RDF>
  </metadata>
  <g
     transform="matrix(0.1984375,0,0,0.1984375,-128.61623,-26.173032)"
     id="g148">
    <g
       id="g84">
      <polygon
         style="fill:#515151"
         points="755,261.3 751.2,263.4 760.4,275.4 "
         id="polygon80" />
      <path
         inkscape:connector-curvature="0"
         style="fill:#515151"
         d="m 764.6,283 -15.3,-20 6.3,-3.5 z m -11.5,-19.2 3.1,4 -1.8,-4.7 z"
         id="path82" />
    </g>
    <g
       id="g90">
      <polygon
         style="fill:#515151"
         points="657.8,261.3 661.6,263.4 652.4,275.4 "
         id="polygon86" />
      <path
         inkscape:connector-curvature="0"
         style="fill:#515151"
         d="m 648.2,283 9,-23.5 6.3,3.5 z m 10.2,-20 -1.8,4.7 3.1,-4 z"
         id="path88" />
    </g>
    <g
       id="g98">
      <path
         inkscape:connector-curvature="0"
         style="fill:#cad5d7"
         d="m 756.2,258.5 -46,-79.7 v 0 c -0.1,-0.1 -0.1,-0.2 -0.2,-0.4 v 0 c -0.1,-0.1 -0.2,-0.2 -0.3,-0.3 v 0 c -0.1,-0.1 -0.2,-0.2 -0.2,-0.3 l -0.1,-0.1 c -0.1,-0.1 -0.1,-0.1 -0.2,-0.2 l -0.1,-0.1 -0.2,-0.1 -0.2,-0.1 h -0.1 l -0.2,-0.1 -0.2,-0.1 c -0.1,0 -0.2,-0.1 -0.2,-0.1 l -0.2,-0.1 c -0.1,0 -0.2,-0.1 -0.3,-0.1 h -0.1 c -0.1,0 -0.2,0 -0.3,-0.1 h -0.2 c -0.1,0 -0.2,0 -0.3,0 h -0.2 c -0.1,0 -0.2,0 -0.2,0 -0.1,0 -0.2,0 -0.2,0 h -0.2 c -0.1,0 -0.2,0 -0.3,0 h -0.2 c -0.1,0 -0.2,0 -0.3,0.1 h -0.1 c -0.1,0 -0.2,0.1 -0.3,0.1 l -0.2,0.1 c -0.1,0 -0.2,0.1 -0.2,0.1 l -0.2,0.1 -0.2,0.1 v 0 h -0.1 l -0.2,0.1 -0.2,0.1 -0.1,0.1 c -0.1,0.1 -0.2,0.1 -0.2,0.2 l -0.1,0.1 c -0.1,0.1 -0.2,0.2 -0.2,0.3 v 0 c -0.1,0.1 -0.2,0.2 -0.3,0.3 v 0 c -0.1,0.1 -0.2,0.2 -0.2,0.4 v 0 l -46,79.7 c -1.2,2.1 -0.5,4.9 1.6,6.1 2.1,1.2 4.9,0.5 6.1,-1.6 l 42.1,-73 42.1,73 c 1.2,2.1 4,2.9 6.1,1.6 2.5,-1.2 3.3,-4 2,-6.1 z"
         id="path92" />
      <g
         id="g96">
        <path
           inkscape:connector-curvature="0"
           style="fill:#515151"
           d="m 752.4,266.4 v 0 c -2,0 -3.9,-1.1 -5,-2.9 l -41,-71.1 -41,71.1 c -1,1.8 -2.9,2.9 -5,2.9 -1,0 -2,-0.3 -2.9,-0.8 -2.7,-1.6 -3.7,-5.1 -2.1,-7.8 l 46,-79.7 c 0.1,-0.2 0.2,-0.3 0.3,-0.5 0.1,-0.2 0.2,-0.3 0.3,-0.4 0.1,-0.2 0.2,-0.3 0.4,-0.4 l 0.1,-0.1 c 0.1,-0.1 0.2,-0.2 0.3,-0.2 l 1.1,-0.7 c 0.1,-0.1 0.2,-0.1 0.3,-0.2 l 0.2,-0.1 c 0.1,-0.1 0.3,-0.1 0.4,-0.1 h 0.2 c 0.1,0 0.3,-0.1 0.4,-0.1 h 0.2 c 0.1,0 0.2,0 0.4,0 h 0.2 c 0.3,0 0.5,0 0.6,0 h 0.2 c 0.1,0 0.2,0 0.4,0 h 0.2 c 0.1,0 0.2,0 0.4,0.1 h 0.2 c 0.1,0 0.2,0.1 0.4,0.1 l 0.2,0.1 c 0.1,0.1 0.2,0.1 0.3,0.1 l 1.1,0.7 c 0.1,0.1 0.2,0.2 0.3,0.2 l 0.1,0.1 c 0.1,0.1 0.2,0.2 0.3,0.3 0.2,0.2 0.3,0.3 0.4,0.5 0.1,0.2 0.2,0.3 0.3,0.5 l 46,79.7 c 0.8,1.3 1,2.9 0.6,4.3 -0.4,1.5 -1.3,2.7 -2.7,3.5 -1.2,0.7 -2.1,0.9 -3.1,0.9 z m -46,-79 43.2,74.9 c 0.6,1 1.6,1.6 2.8,1.6 0.6,0 1.1,-0.1 1.6,-0.4 0.7,-0.4 1.3,-1.1 1.5,-2 0.2,-0.8 0.1,-1.7 -0.3,-2.4 l -46,-79.7 c -0.1,-0.1 -0.1,-0.2 -0.2,-0.3 -0.1,-0.1 -0.1,-0.2 -0.2,-0.2 -0.1,-0.1 -0.1,-0.1 -0.2,-0.2 l -0.1,-0.1 c 0,0 -0.1,-0.1 -0.1,-0.1 l -0.7,-0.4 c 0,0 -0.1,0 -0.1,-0.1 l -0.1,-0.1 c 0,0 -0.1,0 -0.2,-0.1 h -0.1 c 0,0 -0.1,0 -0.2,0 h -0.1 c 0,0 -0.1,0 -0.2,0 h -0.3 -0.3 c 0,0 -0.1,0 -0.2,0 h -0.1 c -0.1,0 -0.1,0 -0.2,0 h -0.1 c -0.1,0 -0.1,0 -0.2,0.1 h -0.1 c 0,0 -0.1,0 -0.2,0.1 l -0.6,0.4 c -0.1,0 -0.1,0.1 -0.2,0.1 -0.1,0.1 -0.2,0.2 -0.2,0.2 -0.1,0.1 -0.1,0.2 -0.2,0.3 -0.1,0.1 -0.1,0.2 -0.2,0.3 l -46,79.7 c -0.9,1.5 -0.4,3.5 1.2,4.4 0.5,0.3 1,0.4 1.6,0.4 1.1,0 2.2,-0.6 2.8,-1.6 z"
           id="path94" />
      </g>
    </g>
    <g
       id="g110">
      <g
         id="g102">
        <path
           inkscape:connector-curvature="0"
           style="fill:#cad5d7"
           d="m 706.4,162.3 c -8.4,0 -15.3,6.8 -15.3,15.3 0,8.4 6.8,15.3 15.3,15.3 8.4,0 15.3,-6.8 15.3,-15.3 0,-8.4 -6.9,-15.3 -15.3,-15.3 z m 0,24.4 c -5,0 -9.1,-4.1 -9.1,-9.1 0,-5 4.1,-9.1 9.1,-9.1 5,0 9.1,4.1 9.1,9.1 0,5 -4.1,9.1 -9.1,9.1 z"
           id="path100" />
      </g>
      <g
         id="g108">
        <g
           id="g106">
          <path
             inkscape:connector-curvature="0"
             style="fill:#515151"
             d="m 706.4,194.1 c -9.1,0 -16.5,-7.4 -16.5,-16.5 0,-9.1 7.4,-16.5 16.5,-16.5 9.1,0 16.5,7.4 16.5,16.5 0,9.1 -7.4,16.5 -16.5,16.5 z m 0,-30.5 c -7.7,0 -14,6.3 -14,14 0,7.7 6.3,14 14,14 7.7,0 14,-6.3 14,-14 0,-7.7 -6.3,-14 -14,-14 z m 0,24.3 c -5.7,0 -10.3,-4.6 -10.3,-10.3 0,-5.7 4.6,-10.3 10.3,-10.3 5.7,0 10.3,4.6 10.3,10.3 0,5.7 -4.6,10.3 -10.3,10.3 z m 0,-18.1 c -4.3,0 -7.8,3.5 -7.8,7.8 0,4.3 3.5,7.8 7.8,7.8 4.3,0 7.8,-3.5 7.8,-7.8 0,-4.3 -3.5,-7.8 -7.8,-7.8 z"
             id="path104" />
        </g>
      </g>
    </g>
    <g
       id="g116">
      <rect
         style="fill:#c9c8c8"
         x="705.29999"
         y="159.60001"
         width="2.2"
         height="3.0999999"
         id="rect112" />
      <rect
         style="fill:#515151"
         x="704"
         y="158.3"
         width="4.6999998"
         height="5.5999999"
         id="rect114" />
    </g>
    <g
       id="g122">
      <rect
         style="fill:#515151"
         x="703.5"
         y="151.7"
         width="5.8000002"
         height="8.6999998"
         id="rect118" />
      <path
         inkscape:connector-curvature="0"
         style="fill:#515151"
         d="m 710.5,161.6 h -8.3 v -11.2 h 8.3 z m -5.8,-2.5 h 3.3 v -6.2 h -3.3 z"
         id="path120" />
    </g>
    <g
       id="g134">
      <g
         id="g126">
        <path
           inkscape:connector-curvature="0"
           style="fill:#cad5d7"
           d="m 736.2,211.4 -0.2,-0.1 c -2,-1.1 -4.4,-0.5 -5.8,1.4 -5.5,7.7 -18.6,11.1 -24,11.1 -6.8,0 -19.6,-3.4 -24.8,-11.3 -0.8,-1.2 -2.5,-1.2 -3.3,0 l -2.6,3.9 c -0.7,1 -0.7,2.4 0.1,3.4 6.5,8.9 17.9,13.4 30.7,13.4 13.7,0 25.4,-5.6 31.5,-15.6 1.2,-2.2 0.5,-5 -1.6,-6.2 z m -2.2,6 c -1.1,0 -1.9,-0.9 -1.9,-1.9 0,-1 0.9,-1.9 1.9,-1.9 1.1,0 1.9,0.9 1.9,1.9 0,1 -0.9,1.9 -1.9,1.9 z"
           id="path124" />
      </g>
      <g
         id="g132">
        <g
           id="g130">
          <path
             inkscape:connector-curvature="0"
             style="fill:#515151"
             d="m 706.2,234.3 c -13.7,0 -25.2,-5.1 -31.7,-13.9 -1,-1.4 -1.1,-3.4 -0.1,-4.8 l 2.6,-3.9 c 0.6,-0.9 1.6,-1.4 2.7,-1.4 1.1,0 2.1,0.6 2.7,1.5 4.8,7.3 17,10.8 23.8,10.8 5.5,0 17.9,-3.5 23,-10.6 1.1,-1.5 2.8,-2.4 4.7,-2.4 0.9,0 1.9,0.2 2.7,0.7 l 0.2,0.1 c 1.3,0.8 2.3,2 2.7,3.5 0.4,1.5 0.2,3 -0.6,4.3 -6.4,10.2 -18.3,16.1 -32.7,16.1 z m -26.5,-21.5 c -0.1,0 -0.4,0 -0.6,0.3 l -2.6,3.9 c -0.4,0.6 -0.4,1.4 0,2 6,8.2 16.8,12.8 29.7,12.8 13.1,0 23.8,-5.1 29.8,-14 -0.6,0.5 -1.3,0.8 -2.1,0.8 -1.8,0 -3.2,-1.4 -3.2,-3.2 0,-1.8 1.4,-3.2 3.2,-3.2 1.7,0 3,1.3 3.2,2.9 0,-0.2 0,-0.5 -0.1,-0.7 -0.2,-0.8 -0.7,-1.5 -1.5,-1.9 l -0.2,-0.1 c -1.4,-0.8 -3.2,-0.3 -4.1,1 -5.8,8.1 -19.4,11.6 -25,11.6 -7.5,0 -20.5,-3.7 -25.9,-11.9 -0.2,-0.3 -0.5,-0.3 -0.6,-0.3 z m 54.3,2 c -0.4,0 -0.7,0.3 -0.7,0.7 0,0.4 0.3,0.7 0.7,0.7 0.4,0 0.7,-0.3 0.7,-0.7 -0.1,-0.4 -0.4,-0.7 -0.7,-0.7 z"
             id="path128" />
        </g>
      </g>
    </g>
    <g
       id="g140">
      <circle
         style="fill:#ffffff"
         cx="736.29999"
         cy="212.2"
         r="2.9000001"
         id="circle136" />
      <path
         inkscape:connector-curvature="0"
         style="fill:#515151"
         d="m 736.3,216.3 c -2.3,0 -4.1,-1.9 -4.1,-4.1 0,-2.3 1.9,-4.1 4.1,-4.1 2.3,0 4.1,1.9 4.1,4.1 0,2.2 -1.8,4.1 -4.1,4.1 z m 0,-5.8 c -0.9,0 -1.6,0.7 -1.6,1.6 0,0.9 0.7,1.6 1.6,1.6 0.9,0 1.6,-0.7 1.6,-1.6 0,-0.9 -0.7,-1.6 -1.6,-1.6 z"
         id="path138" />
    </g>
    <g
       id="g146">
      <circle
         style="fill:#312a20"
         cx="706.5"
         cy="181.10001"
         r="1.3"
         id="circle142" />
      <circle
         style="fill:#515151"
         cx="706.5"
         cy="181.10001"
         r="2.5999999"
         id="circle144" />
    </g>
  </g>
</svg>
